<svg width="57" height="65" viewBox="0 0 57 65" fill="none" xmlns="http://www.w3.org/2000/svg">
<g clip-path="url(#clip0_387_1838)">
<path d="M19.3393 3.04688C19.3393 1.3584 17.9779 0 16.2857 0C14.5935 0 13.2321 1.3584 13.2321 3.04688V8.125H8.14286C3.65156 8.125 0 11.7686 0 16.25V18.2812V24.375V56.875C0 61.3564 3.65156 65 8.14286 65H48.8571C53.3484 65 57 61.3564 57 56.875V24.375V18.2812V16.25C57 11.7686 53.3484 8.125 48.8571 8.125H43.7679V3.04688C43.7679 1.3584 42.4065 0 40.7143 0C39.0221 0 37.6607 1.3584 37.6607 3.04688V8.125H19.3393V3.04688ZM6.10714 24.375H16.2857V31.4844H6.10714V24.375ZM6.10714 37.5781H16.2857V45.7031H6.10714V37.5781ZM22.3929 37.5781H34.6071V45.7031H22.3929V37.5781ZM40.7143 37.5781H50.8929V45.7031H40.7143V37.5781ZM50.8929 31.4844H40.7143V24.375H50.8929V31.4844ZM50.8929 51.7969V56.875C50.8929 57.9922 49.9768 58.9062 48.8571 58.9062H40.7143V51.7969H50.8929ZM34.6071 51.7969V58.9062H22.3929V51.7969H34.6071ZM16.2857 51.7969V58.9062H8.14286C7.02321 58.9062 6.10714 57.9922 6.10714 56.875V51.7969H16.2857ZM34.6071 31.4844H22.3929V24.375H34.6071V31.4844Z" fill="#010101"/>
</g>
<defs>
<clipPath id="clip0_387_1838">
<rect width="57" height="65" fill="white"/>
</clipPath>
</defs>
</svg>
