<svg width="34" height="46" viewBox="0 0 34 46" fill="none" xmlns="http://www.w3.org/2000/svg">
<path d="M30.3344 13.5305C31.4412 12.4074 31.4412 10.5836 30.3344 9.46054C29.2276 8.33749 27.4302 8.33749 26.3235 9.46054L17 18.9301L7.66774 9.46952C6.56097 8.34648 4.76357 8.34648 3.6568 9.46952C2.55003 10.5926 2.55003 12.4164 3.6568 13.5394L12.9891 23L3.66565 32.4695C2.55888 33.5926 2.55888 35.4164 3.66565 36.5394C4.77242 37.6625 6.56982 37.6625 7.67659 36.5394L17 27.0699L26.3323 36.5305C27.4391 37.6535 29.2365 37.6535 30.3433 36.5305C31.45 35.4074 31.45 33.5836 30.3433 32.4605L21.011 23L30.3344 13.5305Z" fill="white"/>
</svg>
