<svg width="64" height="74" viewBox="0 0 64 74" fill="none" xmlns="http://www.w3.org/2000/svg">
<path d="M9.14286 5.0625C4.1 5.0625 0 9.15449 0 14.1875V59.8125C0 64.8455 4.1 68.9375 9.14286 68.9375H23.1714V48.1496H15.6286V37H23.1714V32.1951C23.1714 19.7766 28.8 14.0164 41.0286 14.0164C43.3429 14.0164 47.3429 14.4727 48.9857 14.9289V25.0234C48.1286 24.9379 46.6286 24.8809 44.7571 24.8809C38.7571 24.8809 36.4429 27.1479 36.4429 33.0363V37H48.3857L46.3286 48.1496H36.4286V68.9375H54.8571C59.9 68.9375 64 64.8455 64 59.8125V14.1875C64 9.15449 59.9 5.0625 54.8571 5.0625H9.14286Z" fill="white"/>
</svg>
