<svg width="67" height="65" viewBox="0 0 67 65" fill="none" xmlns="http://www.w3.org/2000/svg">
<g clip-path="url(#clip0_387_1861)">
<path d="M4.78571 0C7.43281 0 9.57143 1.81543 9.57143 4.0625V6.09375L19.8906 3.91016C25.5886 2.7041 31.6007 3.2627 36.865 5.49707C43.7893 8.44238 51.94 8.44238 58.8643 5.49707L60.3 4.8877C63.3808 3.56738 67 5.47168 67 8.3916V43.9004C67 45.5889 65.7587 47.1123 63.8893 47.709L58.6998 49.3594C51.7904 51.5557 44.1033 51.2129 37.508 48.4199C31.84 46.0078 25.3493 45.4111 19.1877 46.7188L9.57143 48.75V60.9375C9.57143 63.1846 7.43281 65 4.78571 65C2.13862 65 0 63.1846 0 60.9375V50.7812V42.4023V8.125V4.0625C0 1.81543 2.13862 0 4.78571 0ZM9.57143 23.7529L19.1429 21.9883V30.3037L9.57143 32.0684V40.3711L16.8696 38.8223C17.6324 38.6572 18.3801 38.5176 19.1429 38.4033V30.3037L24.9605 29.2373C26.2018 29.0088 27.458 28.9199 28.7143 28.9707V20.8457C30.7482 20.8965 32.7821 21.1758 34.7562 21.6582L38.2857 22.5342V31.002L32.0493 29.4404C30.9576 29.1738 29.8359 29.0088 28.7143 28.958V38.0225C31.9746 38.2637 35.19 38.873 38.2857 39.8506V31.002L41.6806 31.8525C43.6996 32.3604 45.7634 32.665 47.8571 32.792V24.6289C46.6906 24.5273 45.5241 24.3369 44.3875 24.0576L38.2857 22.5342V14.6631C36.3415 14.1807 34.4272 13.5459 32.5728 12.7588C31.3464 12.2383 30.0453 11.8701 28.7143 11.6416V20.833C26.7701 20.7822 24.8259 20.9346 22.9266 21.29L19.1429 21.9883V12.4414L9.57143 14.4727V23.7529ZM47.8571 42.6182C50.3696 42.8086 52.927 42.5293 55.3348 41.7549L57.4286 41.0947V31.9795L56.2471 32.208C53.4953 32.7539 50.6687 32.9316 47.8571 32.7793V42.6055V42.6182ZM57.4286 23.6514V14.6504C54.3029 15.4248 51.0875 15.8057 47.8571 15.8057V24.6289C49.9359 24.8066 52.0446 24.6924 54.0935 24.2988L57.4286 23.6387V23.6514Z" fill="#010101"/>
</g>
<defs>
<clipPath id="clip0_387_1861">
<rect width="67" height="65" fill="white"/>
</clipPath>
</defs>
</svg>
