<svg width="68" height="78" viewBox="0 0 68 78" fill="none" xmlns="http://www.w3.org/2000/svg">
<g clip-path="url(#clip0_109_57)">
<path d="M34.0152 21.4805C24.3616 21.4805 16.575 29.2957 16.575 38.9848C16.575 48.6739 24.3616 56.4891 34.0152 56.4891C43.6687 56.4891 51.4554 48.6739 51.4554 38.9848C51.4554 29.2957 43.6687 21.4805 34.0152 21.4805ZM34.0152 50.3649C27.7768 50.3649 22.6768 45.2614 22.6768 38.9848C22.6768 32.7082 27.7616 27.6047 34.0152 27.6047C40.2687 27.6047 45.3536 32.7082 45.3536 38.9848C45.3536 45.2614 40.2536 50.3649 34.0152 50.3649ZM56.2366 20.7645C56.2366 23.0344 54.4152 24.8473 52.1688 24.8473C49.9071 24.8473 48.1009 23.0192 48.1009 20.7645C48.1009 18.5098 49.9223 16.6817 52.1688 16.6817C54.4152 16.6817 56.2366 18.5098 56.2366 20.7645ZM67.7875 24.9083C67.5295 19.4391 66.2848 14.5946 62.2929 10.6032C58.3161 6.61177 53.4893 5.36255 48.0402 5.08833C42.4241 4.76841 25.5911 4.76841 19.975 5.08833C14.5411 5.34731 9.71429 6.59653 5.72232 10.5879C1.73036 14.5793 0.500894 19.4239 0.227679 24.893C-0.0910705 30.5297 -0.0910705 47.4247 0.227679 53.0614C0.485715 58.5305 1.73036 63.375 5.72232 67.3664C9.71429 71.3579 14.5259 72.6071 19.975 72.8813C25.5911 73.2012 42.4241 73.2012 48.0402 72.8813C53.4893 72.6223 58.3161 71.3731 62.2929 67.3664C66.2696 63.375 67.5143 58.5305 67.7875 53.0614C68.1062 47.4247 68.1062 30.545 67.7875 24.9083ZM60.5321 59.1094C59.3482 62.0954 57.0563 64.3957 54.0661 65.5993C49.5884 67.3817 38.9634 66.9704 34.0152 66.9704C29.067 66.9704 18.4268 67.3664 13.9643 65.5993C10.9893 64.411 8.69732 62.1106 7.49821 59.1094C5.72232 54.6153 6.13214 43.9512 6.13214 38.9848C6.13214 34.0184 5.7375 23.3391 7.49821 18.8602C8.68214 15.8743 10.9741 13.5739 13.9643 12.3704C18.442 10.5879 29.067 10.9993 34.0152 10.9993C38.9634 10.9993 49.6036 10.6032 54.0661 12.3704C57.0411 13.5586 59.333 15.859 60.5321 18.8602C62.308 23.3543 61.8982 34.0184 61.8982 38.9848C61.8982 43.9512 62.308 54.6305 60.5321 59.1094Z" fill="white"/>
</g>
<defs>
<clipPath id="clip0_109_57">
<rect width="68" height="78" fill="white"/>
</clipPath>
</defs>
</svg>
