<svg width="42" height="48" viewBox="0 0 42 48" fill="none" xmlns="http://www.w3.org/2000/svg">
<line x1="2" y1="2.5" x2="42" y2="2.5" stroke="white" stroke-width="5"/>
<line x1="2" y1="18.5" x2="32" y2="18.5" stroke="white" stroke-width="5"/>
<path d="M8.95659 30.426H11.6206C11.8726 30.426 11.9986 30.552 11.9986 30.804V41.622C11.9986 41.874 11.8726 42 11.6206 42H10.1446C9.89259 42 9.76659 41.874 9.76659 41.622V33.09H9.69459L7.85859 39.12C7.78659 39.36 7.63659 39.48 7.40859 39.48H5.89659C5.66859 39.48 5.51859 39.36 5.44659 39.12L3.57459 33.072H3.50259V41.622C3.50259 41.766 3.47859 41.868 3.43059 41.928C3.38259 41.976 3.28059 42 3.12459 42H1.64859C1.39659 42 1.27059 41.874 1.27059 41.622V30.804C1.27059 30.552 1.39659 30.426 1.64859 30.426H4.33059C4.49859 30.426 4.61259 30.51 4.67259 30.678L6.58059 37.032H6.68859L8.61459 30.678C8.65059 30.51 8.76459 30.426 8.95659 30.426ZM20.9191 42H16.9411C15.9931 42 15.2611 41.748 14.7451 41.244C14.2291 40.74 13.9711 40.014 13.9711 39.066V35.754C13.9711 34.806 14.2291 34.08 14.7451 33.576C15.2611 33.072 15.9931 32.82 16.9411 32.82H18.3631C19.3111 32.82 20.0431 33.072 20.5591 33.576C21.0751 34.08 21.3331 34.806 21.3331 35.754V38.04C21.3331 38.292 21.2071 38.418 20.9551 38.418H16.4371C16.2931 38.418 16.2211 38.484 16.2211 38.616V39.012C16.2211 39.384 16.2991 39.654 16.4551 39.822C16.6231 39.978 16.8991 40.056 17.2831 40.056H20.9191C21.1711 40.056 21.2971 40.188 21.2971 40.452V41.64C21.2971 41.772 21.2671 41.868 21.2071 41.928C21.1591 41.976 21.0631 42 20.9191 42ZM16.4371 36.888H18.8851C19.0171 36.888 19.0831 36.822 19.0831 36.69V35.826C19.0831 35.442 19.0051 35.172 18.8491 35.016C18.6931 34.86 18.4231 34.782 18.0391 34.782H17.2831C16.8991 34.782 16.6291 34.86 16.4731 35.016C16.3171 35.172 16.2391 35.442 16.2391 35.826V36.69C16.2391 36.822 16.3051 36.888 16.4371 36.888ZM24.9537 42H23.4237C23.1717 42 23.0457 41.874 23.0457 41.622V33.198C23.0457 32.946 23.1717 32.82 23.4237 32.82H24.9537C25.2057 32.82 25.3317 32.946 25.3317 33.198V33.792H25.4037C25.6677 33.144 26.2557 32.82 27.1677 32.82H27.7437C29.6277 32.82 30.5697 33.798 30.5697 35.754V41.622C30.5697 41.874 30.4377 42 30.1737 42H28.6617C28.4097 42 28.2837 41.874 28.2837 41.622V35.862C28.2837 35.478 28.1997 35.208 28.0317 35.052C27.8757 34.884 27.6057 34.8 27.2217 34.8H26.5737C25.7457 34.8 25.3317 35.256 25.3317 36.168V41.622C25.3317 41.874 25.2057 42 24.9537 42ZM35.7795 42H35.1855C34.2615 42 33.5595 41.748 33.0795 41.244C32.6115 40.74 32.3775 40.014 32.3775 39.066V33.198C32.3775 32.946 32.5035 32.82 32.7555 32.82H34.2855C34.5375 32.82 34.6635 32.946 34.6635 33.198V38.958C34.6635 39.342 34.7415 39.618 34.8975 39.786C35.0655 39.942 35.3355 40.02 35.7075 40.02H36.3735C37.2015 40.02 37.6155 39.564 37.6155 38.652V33.198C37.6155 32.946 37.7415 32.82 37.9935 32.82H39.5055C39.7695 32.82 39.9015 32.946 39.9015 33.198V41.622C39.9015 41.874 39.7695 42 39.5055 42H37.9935C37.7415 42 37.6155 41.874 37.6155 41.622V41.028H37.5435C37.4115 41.352 37.1775 41.598 36.8415 41.766C36.5055 41.922 36.1515 42 35.7795 42Z" fill="white"/>
</svg>
