<svg width="78" height="65" viewBox="0 0 78 65" fill="none" xmlns="http://www.w3.org/2000/svg">
<path d="M15.1667 14.2188C15.1667 18.7002 11.2802 22.3438 6.5 22.3438V42.6562C11.2802 42.6562 15.1667 46.2998 15.1667 50.7812H62.8333C62.8333 46.2998 66.7198 42.6562 71.5 42.6562V22.3438C66.7198 22.3438 62.8333 18.7002 62.8333 14.2188H15.1667ZM0 16.25C0 11.7686 3.88646 8.125 8.66667 8.125H69.3333C74.1135 8.125 78 11.7686 78 16.25V48.75C78 53.2314 74.1135 56.875 69.3333 56.875H8.66667C3.88646 56.875 0 53.2314 0 48.75V16.25ZM23.8333 32.5C23.8333 30.6328 24.2256 28.7838 24.9878 27.0587C25.75 25.3336 26.8672 23.7662 28.2755 22.4458C29.6839 21.1255 31.3559 20.0781 33.196 19.3636C35.0361 18.649 37.0083 18.2812 39 18.2812C40.9917 18.2812 42.9639 18.649 44.804 19.3636C46.6441 20.0781 48.3161 21.1255 49.7245 22.4458C51.1328 23.7662 52.25 25.3336 53.0122 27.0587C53.7744 28.7838 54.1667 30.6328 54.1667 32.5C54.1667 34.3672 53.7744 36.2162 53.0122 37.9413C52.25 39.6664 51.1328 41.2338 49.7245 42.5542C48.3161 43.8745 46.6441 44.9219 44.804 45.6364C42.9639 46.351 40.9917 46.7188 39 46.7188C37.0083 46.7188 35.0361 46.351 33.196 45.6364C31.3559 44.9219 29.6839 43.8745 28.2755 42.5542C26.8672 41.2338 25.75 39.6664 24.9878 37.9413C24.2256 36.2162 23.8333 34.3672 23.8333 32.5ZM34.6667 26.4062C34.6667 27.5234 35.6417 28.4375 36.8333 28.4375V36.5625H35.75C34.5583 36.5625 33.5833 37.4766 33.5833 38.5938C33.5833 39.7109 34.5583 40.625 35.75 40.625H39H42.25C43.4417 40.625 44.4167 39.7109 44.4167 38.5938C44.4167 37.4766 43.4417 36.5625 42.25 36.5625H41.1667V26.4062C41.1667 25.2891 40.1917 24.375 39 24.375H36.8333C35.6417 24.375 34.6667 25.2891 34.6667 26.4062Z" fill="#010101"/>
</svg>
