<svg width="57" height="65" viewBox="0 0 57 65" fill="none" xmlns="http://www.w3.org/2000/svg">
<g clip-path="url(#clip0_387_1854)">
<path d="M38.6786 16.25C38.6786 13.5564 37.6062 10.9731 35.6973 9.06845C33.7885 7.16378 31.1995 6.09375 28.5 6.09375C25.8005 6.09375 23.2115 7.16378 21.3027 9.06845C19.3938 10.9731 18.3214 13.5564 18.3214 16.25C18.3214 18.9436 19.3938 21.5269 21.3027 23.4316C23.2115 25.3362 25.8005 26.4062 28.5 26.4062C31.1995 26.4062 33.7885 25.3362 35.6973 23.4316C37.6062 21.5269 38.6786 18.9436 38.6786 16.25ZM12.2143 16.25C12.2143 11.9402 13.9301 7.80698 16.9843 4.75951C20.0384 1.71205 24.1808 0 28.5 0C32.8192 0 36.9616 1.71205 40.0157 4.75951C43.0699 7.80698 44.7857 11.9402 44.7857 16.25C44.7857 20.5598 43.0699 24.693 40.0157 27.7405C36.9616 30.788 32.8192 32.5 28.5 32.5C24.1808 32.5 20.0384 30.788 16.9843 27.7405C13.9301 24.693 12.2143 20.5598 12.2143 16.25ZM6.27254 58.9062H50.7275C49.5951 50.8701 42.6737 44.6875 34.3145 44.6875H22.6855C14.3263 44.6875 7.40491 50.8701 6.27254 58.9062ZM0 61.2295C0 48.7246 10.1531 38.5938 22.6855 38.5938H34.3145C46.8469 38.5938 57 48.7246 57 61.2295C57 63.3115 55.3078 65 53.2212 65H3.7788C1.69219 65 0 63.3115 0 61.2295Z" fill="#010101"/>
</g>
<defs>
<clipPath id="clip0_387_1854">
<rect width="57" height="65" fill="white"/>
</clipPath>
</defs>
</svg>
