<svg width="65" height="74" viewBox="0 0 65 74" fill="none" xmlns="http://www.w3.org/2000/svg">
<path d="M9.28571 4.625C4.16406 4.625 0 8.77305 0 13.875V60.125C0 65.227 4.16406 69.375 9.28571 69.375H55.7143C60.8359 69.375 65 65.227 65 60.125V13.875C65 8.77305 60.8359 4.625 55.7143 4.625H9.28571ZM52.3917 16.7656L37.3315 33.907L55.0469 57.2344H41.1763L30.3237 43.0848L17.8895 57.2344H10.9978L27.1027 38.8934L10.1127 16.7656H24.3315L34.154 29.7012L45.5 16.7656H52.3917ZM46.9074 53.1297L22.2567 20.6535H18.1507L43.077 53.1297H46.8929H46.9074Z" fill="white"/>
</svg>
