<svg width="73" height="62" viewBox="0 0 73 62" fill="none" xmlns="http://www.w3.org/2000/svg">
<path d="M69.6668 15.0277C68.8684 12.1578 66.5238 9.90547 63.5455 9.14258C58.1465 7.75 36.5 7.75 36.5 7.75C36.5 7.75 14.8535 7.75 9.45451 9.14258C6.47621 9.90547 4.1316 12.1578 3.33316 15.0277C1.88837 20.2227 1.88837 31.0484 1.88837 31.0484C1.88837 31.0484 1.88837 41.8742 3.33316 47.0691C4.1316 49.9391 6.47621 52.0945 9.45451 52.8574C14.8535 54.25 36.5 54.25 36.5 54.25C36.5 54.25 58.1465 54.25 63.5455 52.8574C66.5238 52.0945 68.8684 49.927 69.6668 47.0691C71.1116 41.8742 71.1116 31.0484 71.1116 31.0484C71.1116 31.0484 71.1116 20.2227 69.6668 15.0277ZM29.4281 40.8813V21.2156L47.5134 31.0484L29.4281 40.8813Z" fill="white"/>
</svg>
